<svg width="1200" height="760" viewBox="0 0 1200 760" fill="none" xmlns="http://www.w3.org/2000/svg">
  <rect width="1200" height="760" fill="white"/>
  <g transform="translate(34 14)">
    <rect x="12" y="6" width="28" height="28" fill="white" stroke="#008C86" stroke-width="2"/>
    <rect x="0" y="18" width="52" height="28" fill="white" stroke="#008C86" stroke-width="2"/>
    <rect x="16" y="2" width="20" height="60" fill="white" stroke="#008C86" stroke-width="2"/>
    <path d="M27 18c-9 0-10 11-1 13 9 2 8 12-2 12M26 13v36" stroke="#008C86" stroke-width="2.5" stroke-linecap="round"/>
    <path d="M32 24h9M32 37h9" stroke="#008C86" stroke-width="2.5" stroke-linecap="round"/>
  </g>
  <g font-family="Inter, Arial, sans-serif" font-size="18" font-weight="800" fill="#00A9A5">
    <text x="454" y="47">HOME</text>
    <rect x="454" y="56" width="40" height="3" rx="1.5" fill="#00A9A5"/>
    <text x="527" y="47">SERVICES</text>
    <text x="626" y="47">CONTACT</text>
    <rect x="1067" y="18" width="136" height="36" rx="4" stroke="#00A9A5"/>
    <text x="1084" y="42" font-size="16">Set Appointment</text>
  </g>
  <g font-family="Inter, Arial, sans-serif" fill="black">
    <text x="26" y="290" font-size="52" font-weight="900">Your Friendly</text>
    <text x="26" y="352" font-size="52" font-weight="900">Neighborhood</text>
    <text x="26" y="414" font-size="52" font-weight="900">Healthcare Clinic</text>
    <text x="26" y="485" font-size="22" font-weight="500">At Clinic, we take pride in being more than just a healthcare provider</text>
    <text x="26" y="511" font-size="22" font-weight="500">—we are your partners in health. Conveniently located along the</text>
    <text x="26" y="537" font-size="22" font-weight="500">main road, we serve the vibrant communities of Borey Sorla, #371</text>
    <text x="26" y="563" font-size="22" font-weight="500">street in Phnom Penh.</text>
  </g>
  <g transform="translate(588 84)">
    <rect width="620" height="600" fill="#4F6EA2"/>
    <rect x="86" y="92" width="438" height="508" fill="#F3E7D4"/>
    <path d="M86 92L331 10L524 92H86Z" fill="#E9DCC7"/>
    <path d="M86 92L331 10L524 92" stroke="#59483B" stroke-width="8" stroke-linejoin="round"/>
    <rect x="151" y="176" width="75" height="112" fill="#7A3F2E"/>
    <rect x="372" y="176" width="75" height="112" fill="#7A3F2E"/>
    <rect x="151" y="362" width="75" height="112" fill="#7A3F2E"/>
    <rect x="372" y="362" width="75" height="112" fill="#7A3F2E"/>
    <g stroke="#D99A70" stroke-width="5">
      <path d="M188 176v112M151 213h75M151 251h75"/>
      <path d="M409 176v112M372 213h75M372 251h75"/>
      <path d="M188 362v112M151 399h75M151 437h75"/>
      <path d="M409 362v112M372 399h75M372 437h75"/>
    </g>
    <rect x="70" y="286" width="470" height="18" fill="#D8C9B5"/>
    <rect x="70" y="474" width="470" height="18" fill="#D8C9B5"/>
    <circle cx="305" cy="284" r="68" fill="#FF1111"/>
    <circle cx="305" cy="284" r="84" stroke="#D95F5F" stroke-width="2" opacity=".55"/>
    <rect x="285" y="238" width="40" height="92" fill="white"/>
    <rect x="259" y="264" width="92" height="40" fill="white"/>
    <path d="M385 600c8-85 48-132 91-175 15 73 39 115 105 175H385Z" fill="#7B6B43"/>
    <path d="M-10 600c62-58 101-95 141-188 40 77 91 128 165 188H-10Z" fill="#7B6B43"/>
    <path d="M-6 600h628" stroke="#374151" stroke-width="8"/>
  </g>
</svg>
