<svg width="1200" height="760" viewBox="0 0 1200 760" fill="none" xmlns="http://www.w3.org/2000/svg">
  <rect width="1200" height="760" fill="#FFE0C5"/>
  <rect width="1200" height="108" fill="#E8ECF8"/>
  <g transform="translate(60 28)">
    <circle cx="36" cy="24" r="24" fill="#F8FAFC"/>
    <path d="M19 24h34M36 7c9 10 9 24 0 34M36 7c-9 10-9 24 0 34M16 18h40M16 30h40" stroke="#1D8FCD" stroke-width="3" stroke-linecap="round"/>
    <path d="M54 15h13l-4 15H48l-4-22H35" stroke="#76C043" stroke-width="3" stroke-linecap="round" stroke-linejoin="round"/>
    <text x="0" y="66" font-family="Inter, Arial, sans-serif" font-size="18" font-weight="800" fill="#5362BA">E-commerce</text>
  </g>
  <g font-family="Inter, Arial, sans-serif" font-size="17" font-weight="700" fill="#171923">
    <text x="756" y="49" fill="#07877F">Home</text>
    <rect x="756" y="58" width="36" height="3" rx="1.5" fill="#07877F"/>
    <text x="835" y="49">Shop</text>
    <text x="910" y="49">checkout</text>
    <text x="1006" y="49">About</text>
    <text x="1080" y="49">Contact</text>
    <text x="1153" y="49">▣ 0</text>
  </g>
  <g font-family="Inter, Arial, sans-serif" fill="#122033">
    <text x="52" y="314" font-size="24" font-weight="800">Trade-in-offer</text>
    <text x="52" y="365" font-size="34" font-weight="800">Supper value deals</text>
    <text x="52" y="430" font-size="51" font-weight="900" fill="#07877F">On all products</text>
    <text x="52" y="472" font-size="18" font-weight="500" fill="#34495E">Save more with coupons &amp; up to 70% off!</text>
    <rect x="52" y="500" width="104" height="48" rx="6" fill="#FF3B70"/>
    <text x="76" y="532" font-size="17" font-weight="800" fill="white">Shop Now</text>
  </g>
  <g transform="translate(664 285)">
    <ellipse cx="218" cy="297" rx="245" ry="32" fill="#C98F7B" opacity=".25"/>
    <path d="M137 64c3-19 18-31 38-31h276c17 0 31 14 31 31v166c0 17-14 31-31 31H145c-19 0-33-17-30-36l22-161Z" fill="#20242B"/>
    <path d="M159 71h293v151H137l22-151Z" fill="#0F172A"/>
    <rect x="178" y="87" width="246" height="117" rx="6" fill="url(#screen)"/>
    <path d="M95 250h350l92 59c9 6 5 20-6 20H114c-19 0-37-8-49-22l-26-30c-8-10-1-27 12-27h44Z" fill="#8F969D"/>
    <path d="M113 263h320l48 31H88l25-31Z" fill="#C7CCD0"/>
    <path d="M220 288h120l29 19H188l32-19Z" fill="#6B7177"/>
    <path d="M119 318h418c-2 7-8 11-16 11H116c-16 0-31-6-42-18 13 5 28 7 45 7Z" fill="#656B71"/>
    <rect x="182" y="119" width="156" height="12" rx="6" fill="#EEF2FF" opacity=".9"/>
    <rect x="182" y="142" width="82" height="8" rx="4" fill="#FF3B70"/>
    <rect x="182" y="171" width="55" height="30" rx="4" fill="#3B82F6" opacity=".8"/>
    <rect x="246" y="171" width="55" height="30" rx="4" fill="#A855F7" opacity=".8"/>
    <rect x="310" y="171" width="55" height="30" rx="4" fill="#06B6D4" opacity=".8"/>
  </g>
  <defs>
    <linearGradient id="screen" x1="178" y1="87" x2="424" y2="204" gradientUnits="userSpaceOnUse">
      <stop stop-color="#102A56"/>
      <stop offset=".55" stop-color="#183B79"/>
      <stop offset="1" stop-color="#07111F"/>
    </linearGradient>
  </defs>
</svg>
